<svg width="87" height="309" viewBox="0 0 87 309" fill="none" xmlns="http://www.w3.org/2000/svg">
<path d="M68.7191 93.64C64.7991 108.76 59.8991 124.44 54.0191 140.68C48.4191 156.92 42.5391 172.32 36.3791 186.88C36.0991 187.44 35.5391 188.84 34.6991 191.08C33.8591 193.04 32.8791 193.88 31.7591 193.6C31.1991 193.6 30.9191 192.48 30.9191 190.24C31.1991 187.72 31.3391 186.04 31.3391 185.2C31.6191 181.84 32.1791 177.64 33.0191 172.6C33.8591 167.56 34.8391 162.38 35.9591 157.06C37.0791 151.74 38.1991 146.56 39.3191 141.52C40.4391 136.48 41.5591 132.14 42.6791 128.5C43.2391 126.82 44.0791 123.46 45.1991 118.42C46.5991 113.1 47.9991 106.8 49.3991 99.52C51.0791 92.24 52.6191 84.4 54.0191 76C55.6991 67.6 57.0991 59.48 58.2191 51.64C59.3391 43.8 60.0391 36.66 60.3191 30.22C60.5991 23.78 60.1791 18.74 59.0591 15.1C58.4991 13.98 58.3591 13.14 58.6391 12.58C58.9191 11.74 59.1991 11.32 59.4791 11.32C60.0391 11.32 60.4591 11.74 60.7391 12.58C61.0191 13.14 61.4391 13.7 61.9991 14.26C65.0791 19.02 67.4591 24.76 69.1391 31.48C70.8191 38.2 71.7991 45.34 72.0791 52.9C72.6391 60.18 72.4991 67.46 71.6591 74.74C71.0991 82.02 70.1191 88.32 68.7191 93.64ZM64.9391 186.88C61.5791 200.32 57.5191 214.04 52.7591 228.04C47.9991 242.04 43.7991 254.36 40.1591 265C39.5991 266.4 39.0391 267.8 38.4791 269.2C37.9191 270.32 37.4991 270.6 37.2191 270.04C36.6591 270.04 36.2391 269.34 35.9591 267.94C35.9591 266.54 35.9591 265.14 35.9591 263.74C36.7991 242.74 39.7391 221.74 44.7791 200.74C50.0991 179.74 55.9791 158.6 62.4191 137.32C66.3391 124.16 69.8391 110.72 72.9191 97C76.2791 83 78.5191 68.02 79.6391 52.06C79.6391 50.66 80.0591 49.96 80.8991 49.96C81.1791 49.96 81.4591 50.24 81.7391 50.8C82.0191 51.36 82.2991 51.92 82.5791 52.48C85.6591 60.04 86.7791 69.98 85.9391 82.3C85.3791 94.34 83.8391 106.94 81.3191 120.1C78.7991 132.98 75.8591 145.58 72.4991 157.9C69.1391 169.94 66.6191 179.6 64.9391 186.88ZM26.2991 305.32C27.1391 307 27.4191 307.84 27.1391 307.84C26.5791 307.84 26.0191 307.7 25.4591 307.42C24.8991 307.14 24.4791 307 24.1991 307C16.3591 297.76 10.6191 287.82 6.97906 277.18C3.33906 266.26 1.09906 255.06 0.259063 243.58C-0.300937 232.1 0.119063 220.48 1.51906 208.72C3.19906 196.96 5.29906 185.48 7.81906 174.28C11.4591 158.88 15.6591 143.62 20.4191 128.5C25.1791 113.1 29.5191 98.26 33.4391 83.98C37.6391 69.42 40.9991 55.42 43.5191 41.98C46.3191 28.54 47.5791 15.66 47.2991 3.33998C47.2991 1.93998 47.5791 1.09998 48.1391 0.819987C48.4191 0.819987 48.6991 1.23999 48.9791 2.08C49.5391 2.91998 49.8191 3.47998 49.8191 3.75997C53.7391 17.2 54.9991 31.2 53.5991 45.76C52.1991 60.04 49.3991 74.74 45.1991 89.86C41.2791 104.98 36.7991 120.38 31.7591 136.06C26.7191 151.74 22.3791 167.28 18.7391 182.68C16.4991 192.48 14.6791 202.7 13.2791 213.34C12.1591 223.98 11.7391 234.76 12.0191 245.68C12.5791 256.32 13.9791 266.82 16.2191 277.18C18.4591 287.26 21.8191 296.64 26.2991 305.32ZM30.9191 277.18C32.3191 286.14 35.1191 295.52 39.3191 305.32C39.5991 305.88 39.7391 306.58 39.7391 307.42C40.0191 308.26 39.8791 308.68 39.3191 308.68C38.7591 308.68 37.9191 308.4 36.7991 307.84C36.2391 307.56 35.8191 307.14 35.5391 306.58C31.8991 302.38 28.9591 298.46 26.7191 294.82C24.7591 291.18 23.0791 285.3 21.6791 277.18C21.1191 274.1 20.6991 270.18 20.4191 265.42C20.4191 260.66 20.5591 256.04 20.8391 251.56C21.1191 247.08 21.5391 243.3 22.0991 240.22C22.9391 237.14 23.9191 235.6 25.0391 235.6C25.3191 235.6 25.5991 236.3 25.8791 237.7C26.4391 239.1 26.8591 240.78 27.1391 242.74C27.4191 244.42 27.5591 246.24 27.5591 248.2C27.8391 249.88 27.9791 251 27.9791 251.56C28.5391 256.32 28.9591 260.8 29.2391 265C29.5191 269.2 30.0791 273.26 30.9191 277.18Z" fill="white"/>
</svg>
