<svg width="936" height="377" viewBox="0 0 936 377" fill="none" xmlns="http://www.w3.org/2000/svg">
<path d="M69.0898 93.64C65.1698 108.76 60.2698 124.44 54.3898 140.68C48.7898 156.92 42.9098 172.32 36.7498 186.88C36.4698 187.44 35.9098 188.84 35.0698 191.08C34.2298 193.04 33.2498 193.88 32.1298 193.6C31.5698 193.6 31.2898 192.48 31.2898 190.24C31.5698 187.72 31.7098 186.04 31.7098 185.2C31.9898 181.84 32.5498 177.64 33.3898 172.6C34.2298 167.56 35.2098 162.38 36.3298 157.06C37.4498 151.74 38.5698 146.56 39.6898 141.52C40.8098 136.48 41.9298 132.14 43.0498 128.5C43.6098 126.82 44.4498 123.46 45.5698 118.42C46.9698 113.1 48.3698 106.8 49.7698 99.52C51.4498 92.24 52.9898 84.4 54.3898 76C56.0698 67.6 57.4698 59.48 58.5898 51.64C59.7098 43.8 60.4098 36.66 60.6898 30.22C60.9698 23.78 60.5498 18.74 59.4298 15.1C58.8698 13.98 58.7298 13.14 59.0098 12.58C59.2898 11.74 59.5698 11.32 59.8498 11.32C60.4098 11.32 60.8298 11.74 61.1098 12.58C61.3898 13.14 61.8098 13.7 62.3698 14.26C65.4498 19.02 67.8298 24.76 69.5098 31.48C71.1898 38.2 72.1698 45.34 72.4498 52.9C73.0098 60.18 72.8698 67.46 72.0298 74.74C71.4698 82.02 70.4898 88.32 69.0898 93.64ZM65.3098 186.88C61.9498 200.32 57.8898 214.04 53.1298 228.04C48.3698 242.04 44.1698 254.36 40.5298 265C39.9698 266.4 39.4098 267.8 38.8498 269.2C38.2898 270.32 37.8698 270.6 37.5898 270.04C37.0298 270.04 36.6098 269.34 36.3298 267.94C36.3298 266.54 36.3298 265.14 36.3298 263.74C37.1698 242.74 40.1098 221.74 45.1498 200.74C50.4698 179.74 56.3498 158.6 62.7898 137.32C66.7098 124.16 70.2098 110.72 73.2898 97C76.6498 83 78.8898 68.02 80.0098 52.06C80.0098 50.66 80.4298 49.96 81.2698 49.96C81.5498 49.96 81.8298 50.24 82.1098 50.8C82.3898 51.36 82.6698 51.92 82.9498 52.48C86.0298 60.04 87.1498 69.98 86.3098 82.3C85.7498 94.34 84.2098 106.94 81.6898 120.1C79.1698 132.98 76.2298 145.58 72.8698 157.9C69.5098 169.94 66.9898 179.6 65.3098 186.88ZM26.6698 305.32C27.5098 307 27.7898 307.84 27.5098 307.84C26.9498 307.84 26.3898 307.7 25.8298 307.42C25.2698 307.14 24.8498 307 24.5698 307C16.7298 297.76 10.9898 287.82 7.34976 277.18C3.70976 266.26 1.46976 255.06 0.62976 243.58C0.0697599 232.1 0.48976 220.48 1.88976 208.72C3.56976 196.96 5.66976 185.48 8.18976 174.28C11.8298 158.88 16.0298 143.62 20.7898 128.5C25.5498 113.1 29.8898 98.26 33.8098 83.98C38.0098 69.42 41.3698 55.42 43.8898 41.98C46.6898 28.54 47.9498 15.66 47.6698 3.33998C47.6698 1.93998 47.9498 1.09998 48.5098 0.819987C48.7898 0.819987 49.0698 1.23999 49.3498 2.08C49.9098 2.91998 50.1898 3.47998 50.1898 3.75997C54.1098 17.2 55.3698 31.2 53.9698 45.76C52.5698 60.04 49.7698 74.74 45.5698 89.86C41.6498 104.98 37.1698 120.38 32.1298 136.06C27.0898 151.74 22.7498 167.28 19.1098 182.68C16.8698 192.48 15.0498 202.7 13.6498 213.34C12.5298 223.98 12.1098 234.76 12.3898 245.68C12.9498 256.32 14.3498 266.82 16.5898 277.18C18.8298 287.26 22.1898 296.64 26.6698 305.32ZM31.2898 277.18C32.6898 286.14 35.4898 295.52 39.6898 305.32C39.9698 305.88 40.1098 306.58 40.1098 307.42C40.3898 308.26 40.2498 308.68 39.6898 308.68C39.1298 308.68 38.2898 308.4 37.1698 307.84C36.6098 307.56 36.1898 307.14 35.9098 306.58C32.2698 302.38 29.3298 298.46 27.0898 294.82C25.1298 291.18 23.4498 285.3 22.0498 277.18C21.4898 274.1 21.0698 270.18 20.7898 265.42C20.7898 260.66 20.9298 256.04 21.2098 251.56C21.4898 247.08 21.9098 243.3 22.4698 240.22C23.3098 237.14 24.2898 235.6 25.4098 235.6C25.6898 235.6 25.9698 236.3 26.2498 237.7C26.8098 239.1 27.2298 240.78 27.5098 242.74C27.7898 244.42 27.9298 246.24 27.9298 248.2C28.2098 249.88 28.3498 251 28.3498 251.56C28.9098 256.32 29.3298 260.8 29.6098 265C29.8898 269.2 30.4498 273.26 31.2898 277.18ZM238.981 307H207.669V69.5469H238.981V307ZM290.138 130.541L291.116 152.721C304.598 135.76 322.211 127.279 343.956 127.279C381.249 127.279 400.058 148.317 400.384 190.394V307H370.213V190.23C370.104 177.51 367.169 168.105 361.406 162.017C355.753 155.928 346.892 152.884 334.823 152.884C325.038 152.884 316.449 155.493 309.056 160.712C301.663 165.931 295.9 172.78 291.769 181.261V307H261.598V130.541H290.138ZM408.486 217.303C408.486 190.23 414.901 168.486 427.73 152.068C440.56 135.542 457.357 127.279 478.124 127.279C498.781 127.279 515.144 134.346 527.213 148.48V56.5H557.384V307H529.659L528.191 288.082C516.123 302.868 499.325 310.262 477.798 310.262C457.357 310.262 440.668 301.89 427.73 285.146C414.901 268.403 408.486 246.549 408.486 219.586V217.303ZM438.657 220.728C438.657 240.733 442.788 256.389 451.051 267.696C459.315 279.004 470.731 284.657 485.3 284.657C504.435 284.657 518.406 276.068 527.213 258.89V177.836C518.189 161.201 504.326 152.884 485.626 152.884C470.839 152.884 459.315 158.592 451.051 170.008C442.788 181.424 438.657 198.33 438.657 220.728ZM607.073 307H576.902V130.541H607.073V307ZM574.455 83.7354C574.455 78.8428 575.923 74.7113 578.859 71.3408C581.903 67.9704 586.361 66.2852 592.232 66.2852C598.103 66.2852 602.56 67.9704 605.605 71.3408C608.649 74.7113 610.171 78.8428 610.171 83.7354C610.171 88.6279 608.649 92.7051 605.605 95.9668C602.56 99.2285 598.103 100.859 592.232 100.859C586.361 100.859 581.903 99.2285 578.859 95.9668C575.923 92.7051 574.455 88.6279 574.455 83.7354ZM618.273 217.303C618.273 189.796 624.634 167.942 637.354 151.742C650.075 135.434 666.927 127.279 687.911 127.279C709.438 127.279 726.236 134.89 738.305 150.111L739.772 130.541H767.334V302.76C767.334 325.592 760.539 343.586 746.948 356.741C733.466 369.897 715.309 376.475 692.477 376.475C679.757 376.475 667.308 373.757 655.131 368.32C642.954 362.884 633.658 355.437 627.243 345.978L642.899 327.875C655.837 343.857 671.657 351.849 690.357 351.849C705.035 351.849 716.451 347.717 724.605 339.454C732.868 331.191 737 319.558 737 304.554V289.387C724.932 303.303 708.46 310.262 687.585 310.262C666.927 310.262 650.184 301.944 637.354 285.31C624.634 268.675 618.273 246.006 618.273 217.303ZM648.607 220.728C648.607 240.624 652.684 256.28 660.839 267.696C668.993 279.004 680.409 284.657 695.087 284.657C714.113 284.657 728.085 276.014 737 258.727V178.162C727.758 161.31 713.896 152.884 695.413 152.884C680.735 152.884 669.265 158.592 661.002 170.008C652.739 181.424 648.607 198.33 648.607 220.728ZM774.947 217.14C774.947 199.853 778.317 184.305 785.058 170.497C791.908 156.689 801.367 146.034 813.435 138.532C825.612 131.03 839.474 127.279 855.022 127.279C879.05 127.279 898.457 135.597 913.244 152.231C928.139 168.866 935.586 190.992 935.586 218.607V220.728C935.586 237.906 932.27 253.345 925.638 267.044C919.115 280.634 909.71 291.235 897.424 298.846C885.247 306.456 871.222 310.262 855.348 310.262C831.429 310.262 812.022 301.944 797.126 285.31C782.34 268.675 774.947 246.658 774.947 219.26V217.14ZM805.281 220.728C805.281 240.298 809.793 256.008 818.817 267.859C827.95 279.71 840.127 285.636 855.348 285.636C870.678 285.636 882.855 279.656 891.879 267.696C900.903 255.628 905.415 238.776 905.415 217.14C905.415 197.787 900.795 182.131 891.553 170.171C882.42 158.103 870.243 152.068 855.022 152.068C840.127 152.068 828.113 157.994 818.98 169.845C809.847 181.696 805.281 198.657 805.281 220.728Z" fill="#212121"/>
</svg>
