<svg width="512" height="512" viewBox="0 0 512 512" fill="none" xmlns="http://www.w3.org/2000/svg">
<path d="M512 256C512 397.385 397.385 512 256 512C114.615 512 0 397.385 0 256C0 114.615 114.615 0 256 0C397.385 0 512 114.615 512 256Z" fill="black"/>
<path d="M286.219 191.64C282.299 206.76 277.399 222.44 271.519 238.68C265.919 254.92 260.039 270.32 253.879 284.88C253.599 285.44 253.039 286.84 252.199 289.08C251.359 291.04 250.379 291.88 249.259 291.6C248.699 291.6 248.419 290.48 248.419 288.24C248.699 285.72 248.839 284.04 248.839 283.2C249.119 279.84 249.679 275.64 250.519 270.6C251.359 265.56 252.339 260.38 253.459 255.06C254.579 249.74 255.699 244.56 256.819 239.52C257.939 234.48 259.059 230.14 260.179 226.5C260.739 224.82 261.579 221.46 262.699 216.42C264.099 211.1 265.499 204.8 266.899 197.52C268.579 190.24 270.119 182.4 271.519 174C273.199 165.6 274.599 157.48 275.719 149.64C276.839 141.8 277.539 134.66 277.819 128.22C278.099 121.78 277.679 116.74 276.559 113.1C275.999 111.98 275.859 111.14 276.139 110.58C276.419 109.74 276.699 109.32 276.979 109.32C277.539 109.32 277.959 109.74 278.239 110.58C278.519 111.14 278.939 111.7 279.499 112.26C282.579 117.02 284.959 122.76 286.639 129.48C288.319 136.2 289.299 143.34 289.579 150.9C290.139 158.18 289.999 165.46 289.159 172.74C288.599 180.02 287.619 186.32 286.219 191.64ZM282.439 284.88C279.079 298.32 275.019 312.04 270.259 326.04C265.499 340.04 261.299 352.36 257.659 363C257.099 364.4 256.539 365.8 255.979 367.2C255.419 368.32 254.999 368.6 254.719 368.04C254.159 368.04 253.739 367.34 253.459 365.94C253.459 364.54 253.459 363.14 253.459 361.74C254.299 340.74 257.239 319.74 262.279 298.74C267.599 277.74 273.479 256.6 279.919 235.32C283.839 222.16 287.339 208.72 290.419 195C293.779 181 296.019 166.02 297.139 150.06C297.139 148.66 297.559 147.96 298.399 147.96C298.679 147.96 298.959 148.24 299.239 148.8C299.519 149.36 299.799 149.92 300.079 150.48C303.159 158.04 304.279 167.98 303.439 180.3C302.879 192.34 301.339 204.94 298.819 218.1C296.299 230.98 293.359 243.58 289.999 255.9C286.639 267.94 284.119 277.6 282.439 284.88ZM243.799 403.32C244.639 405 244.919 405.84 244.639 405.84C244.079 405.84 243.519 405.7 242.959 405.42C242.399 405.14 241.979 405 241.699 405C233.859 395.76 228.119 385.82 224.479 375.18C220.839 364.26 218.599 353.06 217.759 341.58C217.199 330.1 217.619 318.48 219.019 306.72C220.699 294.96 222.799 283.48 225.319 272.28C228.959 256.88 233.159 241.62 237.919 226.5C242.679 211.1 247.019 196.26 250.939 181.98C255.139 167.42 258.499 153.42 261.019 139.98C263.819 126.54 265.079 113.66 264.799 101.34C264.799 99.94 265.079 99.1 265.639 98.82C265.919 98.82 266.199 99.24 266.479 100.08C267.039 100.92 267.319 101.48 267.319 101.76C271.239 115.2 272.499 129.2 271.099 143.76C269.699 158.04 266.899 172.74 262.699 187.86C258.779 202.98 254.299 218.38 249.259 234.06C244.219 249.74 239.879 265.28 236.239 280.68C233.999 290.48 232.179 300.7 230.779 311.34C229.659 321.98 229.239 332.76 229.519 343.68C230.079 354.32 231.479 364.82 233.719 375.18C235.959 385.26 239.319 394.64 243.799 403.32ZM248.419 375.18C249.819 384.14 252.619 393.52 256.819 403.32C257.099 403.88 257.239 404.58 257.239 405.42C257.519 406.26 257.379 406.68 256.819 406.68C256.259 406.68 255.419 406.4 254.299 405.84C253.739 405.56 253.319 405.14 253.039 404.58C249.399 400.38 246.459 396.46 244.219 392.82C242.259 389.18 240.579 383.3 239.179 375.18C238.619 372.1 238.199 368.18 237.919 363.42C237.919 358.66 238.059 354.04 238.339 349.56C238.619 345.08 239.039 341.3 239.599 338.22C240.439 335.14 241.419 333.6 242.539 333.6C242.819 333.6 243.099 334.3 243.379 335.7C243.939 337.1 244.359 338.78 244.639 340.74C244.919 342.42 245.059 344.24 245.059 346.2C245.339 347.88 245.479 349 245.479 349.56C246.039 354.32 246.459 358.8 246.739 363C247.019 367.2 247.579 371.26 248.419 375.18Z" fill="white"/>
</svg>
