<svg width="512" height="512" viewBox="0 0 512 512" fill="none" xmlns="http://www.w3.org/2000/svg">
<path d="M512 256C512 397.385 397.385 512 256 512C114.615 512 0 397.385 0 256C0 114.615 114.615 0 256 0C397.385 0 512 114.615 512 256Z" fill="#7630FF"/>
<path d="M285.719 191.64C281.799 206.76 276.899 222.44 271.019 238.68C265.419 254.92 259.539 270.32 253.379 284.88C253.099 285.44 252.539 286.84 251.699 289.08C250.859 291.04 249.879 291.88 248.759 291.6C248.199 291.6 247.919 290.48 247.919 288.24C248.199 285.72 248.339 284.04 248.339 283.2C248.619 279.84 249.179 275.64 250.019 270.6C250.859 265.56 251.839 260.38 252.959 255.06C254.079 249.74 255.199 244.56 256.319 239.52C257.439 234.48 258.559 230.14 259.679 226.5C260.239 224.82 261.079 221.46 262.199 216.42C263.599 211.1 264.999 204.8 266.399 197.52C268.079 190.24 269.619 182.4 271.019 174C272.699 165.6 274.099 157.48 275.219 149.64C276.339 141.8 277.039 134.66 277.319 128.22C277.599 121.78 277.179 116.74 276.059 113.1C275.499 111.98 275.359 111.14 275.639 110.58C275.919 109.74 276.199 109.32 276.479 109.32C277.039 109.32 277.459 109.74 277.739 110.58C278.019 111.14 278.439 111.7 278.999 112.26C282.079 117.02 284.459 122.76 286.139 129.48C287.819 136.2 288.799 143.34 289.079 150.9C289.639 158.18 289.499 165.46 288.659 172.74C288.099 180.02 287.119 186.32 285.719 191.64ZM281.939 284.88C278.579 298.32 274.519 312.04 269.759 326.04C264.999 340.04 260.799 352.36 257.159 363C256.599 364.4 256.039 365.8 255.479 367.2C254.919 368.32 254.499 368.6 254.219 368.04C253.659 368.04 253.239 367.34 252.959 365.94C252.959 364.54 252.959 363.14 252.959 361.74C253.799 340.74 256.739 319.74 261.779 298.74C267.099 277.74 272.979 256.6 279.419 235.32C283.339 222.16 286.839 208.72 289.919 195C293.279 181 295.519 166.02 296.639 150.06C296.639 148.66 297.059 147.96 297.899 147.96C298.179 147.96 298.459 148.24 298.739 148.8C299.019 149.36 299.299 149.92 299.579 150.48C302.659 158.04 303.779 167.98 302.939 180.3C302.379 192.34 300.839 204.94 298.319 218.1C295.799 230.98 292.859 243.58 289.499 255.9C286.139 267.94 283.619 277.6 281.939 284.88ZM243.299 403.32C244.139 405 244.419 405.84 244.139 405.84C243.579 405.84 243.019 405.7 242.459 405.42C241.899 405.14 241.479 405 241.199 405C233.359 395.76 227.619 385.82 223.979 375.18C220.339 364.26 218.099 353.06 217.259 341.58C216.699 330.1 217.119 318.48 218.519 306.72C220.199 294.96 222.299 283.48 224.819 272.28C228.459 256.88 232.659 241.62 237.419 226.5C242.179 211.1 246.519 196.26 250.439 181.98C254.639 167.42 257.999 153.42 260.519 139.98C263.319 126.54 264.579 113.66 264.299 101.34C264.299 99.94 264.579 99.1 265.139 98.82C265.419 98.82 265.699 99.24 265.979 100.08C266.539 100.92 266.819 101.48 266.819 101.76C270.739 115.2 271.999 129.2 270.599 143.76C269.199 158.04 266.399 172.74 262.199 187.86C258.279 202.98 253.799 218.38 248.759 234.06C243.719 249.74 239.379 265.28 235.739 280.68C233.499 290.48 231.679 300.7 230.279 311.34C229.159 321.98 228.739 332.76 229.019 343.68C229.579 354.32 230.979 364.82 233.219 375.18C235.459 385.26 238.819 394.64 243.299 403.32ZM247.919 375.18C249.319 384.14 252.119 393.52 256.319 403.32C256.599 403.88 256.739 404.58 256.739 405.42C257.019 406.26 256.879 406.68 256.319 406.68C255.759 406.68 254.919 406.4 253.799 405.84C253.239 405.56 252.819 405.14 252.539 404.58C248.899 400.38 245.959 396.46 243.719 392.82C241.759 389.18 240.079 383.3 238.679 375.18C238.119 372.1 237.699 368.18 237.419 363.42C237.419 358.66 237.559 354.04 237.839 349.56C238.119 345.08 238.539 341.3 239.099 338.22C239.939 335.14 240.919 333.6 242.039 333.6C242.319 333.6 242.599 334.3 242.879 335.7C243.439 337.1 243.859 338.78 244.139 340.74C244.419 342.42 244.559 344.24 244.559 346.2C244.839 347.88 244.979 349 244.979 349.56C245.539 354.32 245.959 358.8 246.239 363C246.519 367.2 247.079 371.26 247.919 375.18Z" fill="white"/>
</svg>
